<svg xmlns="http://www.w3.org/2000/svg" width="712.492" height="205.963" viewBox="0 0 712.492 205.963"><g transform="translate(-187.666 -518.595)"><path d="M718.931,522.074c-.164,4.971-.286,9.459-.511,13.943a4.538,4.538,0,0,1-4.845,4.68c-3.025-.023-4.87-1.894-4.913-5.136-.286-21.464-1.221-42.926-.045-64.391.2-3.657,2.132-5.447,5.743-5.448,9.989,0,19.988-.262,29.964.109a24.213,24.213,0,0,1,21.777,16.4c3.41,10.23.911,20.3-7.709,26.9-3.881,2.974-3.562,5.083-1.265,8.514,3.052,4.559,5.744,9.359,8.569,14.07,1.712,2.855,3.225,6.007-.334,8.344-3.745,2.46-6.215-.086-8.124-3.131-3.537-5.638-7.2-11.211-10.439-17.017-2.021-3.621-4.494-5.317-8.754-5.02a64.824,64.824,0,0,1-10.447-.59c-2.662-.249-4.465-1.776-4.317-4.535.159-2.954,1.645-5.032,5.017-5.027,4.994.008,9.992.106,14.982-.039,8.235-.239,13.617-5.827,13.721-14.038.105-8.353-4.926-14.1-13.229-14.492-6.811-.324-13.65-.012-20.472-.162-3.842-.085-4.315,2.165-4.211,5.168C719.551,494.651,718.031,508.116,718.931,522.074Z" transform="translate(132.587 118.818)"/><path d="M348.63,502c.021-10,.009-19.491.077-28.986.041-5.718,1.384-7.12,7.046-7.2,8.495-.117,16.993-.238,25.486-.114,13.858.2,24.992,11.364,24.958,24.8-.037,14.577-10.134,24.52-25.1,24.675q-6.246.065-12.493-.024c-2.946-.039-5.56-.962-5.437-4.418.112-3.132,1.987-5.392,5.318-5.579,3.986-.224,7.992-.064,11.989-.131,10.194-.171,15.451-5.017,15.444-14.186-.007-8.936-5.653-14.462-15.295-14.746-5.493-.162-11,.1-16.488-.112-3.943-.152-5.223,1.49-5.2,5.316.117,16.657.03,33.315.017,49.973,0,.666-.014,1.333.006,2,.113,3.856-.731,7.461-5.334,7.427-4.375-.032-5-3.608-4.981-7.213.022-5.5-.006-10.995-.01-16.492C348.636,512.162,348.634,507.331,348.63,502Z" transform="translate(132.587 118.818)"/><path d="M582.979,520.818c-12.1-26.814,3.757-54.277,32.722-56.756,11.591-.992,21.4,3.909,29.923,11.488,2.479,2.205,2.93,4.57.333,7.281-2.666,2.784-5.012,2.8-7.615.077-12-12.57-34.285-9.82-43.323,2.732-6.235,8.659-8.065,17.985-3.92,27.767,4.415,10.419,12.453,16.627,24.083,17.53,8.544.664,16.157-1.257,22.347-7.609,1.459-1.5,3.1-3.052,5.672-2.365,4.987,1.333,5.988,5.478,2.2,9.4-12.3,12.727-34.562,14.956-49.218,5A41.365,41.365,0,0,1,582.979,520.818Z" transform="translate(132.587 118.818)"/><path d="M252.709,529.363c6.142,2.014,11.942,3.062,18.021,1.469,4.812-1.261,8.08-3.964,8.931-8.943.742-4.346-2.13-9.053-6.815-11.165-2.872-1.294-5.96-2.107-8.945-3.152-3.771-1.32-7.61-2.479-11.289-4.021-9.362-3.923-14.43-11.437-13.7-19.945.8-9.282,6.495-15.992,16.575-18.188,9.127-1.989,18.267-1.456,26.738,3.1,2.717,1.462,6.218,2.92,4.29,7.1-1.851,4.014-5.148,4.416-8.791,2.5-5.37-2.825-11.1-3.322-17-2.952-6.622.415-10.686,3.4-11.426,8.4-.734,4.957,1.843,8.543,8.109,11.024,7.115,2.816,14.632,4.551,21.473,8.12,7.426,3.874,11.108,10.189,10.814,18.28-.283,7.79-4.034,13.882-11.278,17.616a28.261,28.261,0,0,1-13.471,3.223,43.953,43.953,0,0,1-20.679-5.037c-2.956-1.611-6.332-3.5-4.184-7.671,1.979-3.839,5.326-3.273,8.632-1.586C249.9,528.14,251.134,528.653,252.709,529.363Z" transform="translate(132.587 118.818)"/><path d="M471.12,527.995c-1.512,3.2-2.841,6.076-4.264,8.9s-3.573,4.676-6.819,3.293c-3.319-1.415-3.292-4.163-2.067-7.157a375.135,375.135,0,0,1,18.475-38.217c1.356-2.474,3.459-4.249,6.328-2.8a4.9,4.9,0,0,1,2.5,2.745,7.852,7.852,0,0,1-.143,4.71c-.886,3.294-1.221,4.592-1.221,4.592l11.292.171s-4.06-9.654-5.961-14.36c-1.993-4.936-4.315-9.74-6.539-14.581-1.368-2.979-1.169-5.668,1.854-7.334,3.372-1.859,5.48.411,6.793,3.054,5.408,10.885,10.66,21.848,15.917,32.808,4.538,9.461,8.979,18.968,13.514,28.43,1.417,2.957,2.269,5.889-1.352,7.708-3.677,1.847-6.131-.334-7.66-3.409-2.743-5.515-5.426-11.079-7.733-16.785-1.414-3.5-3.506-4.782-7.2-4.584a125.151,125.151,0,0,1-14.489-.027c-4.134-.259-6.576,1.258-7.874,5.179C473.637,522.846,472.347,525.212,471.12,527.995Z" transform="translate(132.587 118.818)"/><g transform="translate(-391.452 162.595)"><path d="M504.749,241.683c7.794-6.194,10.237-6.1,17.78.95,16.463,15.4,26.162,34.651,31.672,56.222,1.6,6.28,3.15,12.6,3.193,19.146a5.248,5.248,0,0,0,3.176,5.18,16.194,16.194,0,0,1,2.846,2.023,60.4,60.4,0,0,1,8.749,7.805c2.02,2.342,4.116,4.066,5.158,8.055.912,3.482.752,9.27.752,15.956,0,17.42,1.233,35.221,1.207,52.545,0,1.332.016,2.666-.035,4-.118,3.081-1.524,5.3-4.777,5.207-3.122-.092-4.852-2.169-4.742-5.314.487-13.9-8.847-21.1-18.87-27.836a9.415,9.415,0,0,0-2.166-.813c-.469.267-.922.364-1.014.6-3.449,8.849-9.067,14.013-19.356,12.078-3.418-.643-4.063,1.849-4.042,4.73q.1,13.742,0,27.485c-.068,7.928-4.891,13.362-11.747,13.444-6.7.08-11.781-5.587-11.833-13.356-.062-9.328-.043-18.657-.012-27.985.008-2.413-.423-4.709-3.4-4.316-10.031,1.325-16.906-2.05-18.748-12.571-10.947,3.315-20.48,14.766-21.527,25.156a23.063,23.063,0,0,1-.615,3.437c-.737,2.857-2.333,4.916-5.56,4.634-3.417-.3-4.138-2.76-4.138-5.731q0-24.237-.07-48.475c0-2.332.037-3.915-.1-6.981.23-15.867,5.622-24.214,16.176-32.073a13.935,13.935,0,0,0,6.009-10.607c3.319-28.345,15.217-52.5,36.033-72.592m44.084,85.83a85.871,85.871,0,0,0-1.179-17.922c-3.99-23.251-13.269-43.874-30.3-60.636-2.976-2.928-5.454-3-8.473.025A109.089,109.089,0,0,0,481.3,294.737c-6.421,20.944-5.193,42.124-1.411,63.3,1.524,8.533,4.243,16.778,6.872,25.024,1.531,4.8,4.261,5.842,10.879,4.867,4.577-.675,2.949-4.145,3.063-6.631.22-4.822-.085-9.668.111-14.493.312-7.666,5.8-13.745,11.988-13.564,6.571.193,11.322,5.873,11.471,13.888.1,5.5.011,11,.059,16.5.013,1.452-.224,3.013,1.429,3.963,4.024,2.311,11.3-.068,12.922-4.442,6.535-17.622,10.826-35.676,10.15-55.636m-80.343,52.4c8.539-5.57,7.328-2.725,4.876-12.761-.592-2.422-1.111-4.861-1.676-7.289-2.1-9.015-2.977-18.235-4.276-27.874-7.434,5.978-11.125,11.042-12.175,22.142-.02,3.318.089,6.977.089,10.472,0,8.912,0,17.824,0,27.712a80.475,80.475,0,0,1,13.163-12.4m98.6-38.852c-3.152-3.062-7.707-7.728-8.326-8.152s-.764,1.448-.806,2.04a186.032,186.032,0,0,1-6.549,37.764,3.208,3.208,0,0,0,1.334,3.947,73.17,73.17,0,0,1,17.5,14.458c0-15.19-.276-29.668-.365-44.073a6.617,6.617,0,0,0-1.772-4.834M514.966,405.5c.009-12.8.044-25.6,0-38.393-.006-1.735.334-4.28-2.095-4.406-2.839-.148-2.607,2.567-2.616,4.454q-.139,31.164-.129,62.329c0,1.644-.01,3.725,2.183,3.883,2.745.2,2.5-2.2,2.529-3.93C514.941,421.792,514.934,414.146,514.966,405.5Z" transform="translate(132.587 118.818)"/><path d="M531.707,311.4c7.559,11.586,5.852,23.4-4.274,31.366-9.393,7.391-22.913,6.662-30.955-1.669-8.608-8.918-8.968-22.158-.863-31.788,9.055-10.76,25.329-9.944,36.091,2.091m-4.981,17.672c2.084-7.684-1.82-15.186-9.088-17.464a14.226,14.226,0,0,0-17.924,8.562c-2.644,7.406.985,14.976,8.525,17.784C515.073,340.5,522.1,337.353,526.725,329.075Z" transform="translate(132.587 118.818)"/></g></g></svg>