<svg xmlns="http://www.w3.org/2000/svg" width="132.752" height="205.963" viewBox="0 0 132.752 205.963"><g transform="translate(-579.118 -356)"><path d="M504.749,241.683c7.794-6.194,10.237-6.1,17.78.95,16.463,15.4,26.162,34.651,31.672,56.222,1.6,6.28,3.15,12.6,3.193,19.146a5.248,5.248,0,0,0,3.176,5.18,16.194,16.194,0,0,1,2.846,2.023,60.4,60.4,0,0,1,8.749,7.805c2.02,2.342,4.116,4.066,5.158,8.055.912,3.482.752,9.27.752,15.956,0,17.42,1.233,35.221,1.207,52.545,0,1.332.016,2.666-.035,4-.118,3.081-1.524,5.3-4.777,5.207-3.122-.092-4.852-2.169-4.742-5.314.487-13.9-8.847-21.1-18.87-27.836a9.415,9.415,0,0,0-2.166-.813c-.469.267-.922.364-1.014.6-3.449,8.849-9.067,14.013-19.356,12.078-3.418-.643-4.063,1.849-4.042,4.73q.1,13.742,0,27.485c-.068,7.928-4.891,13.362-11.747,13.444-6.7.08-11.781-5.587-11.833-13.356-.062-9.328-.043-18.657-.012-27.985.008-2.413-.423-4.709-3.4-4.316-10.031,1.325-16.906-2.05-18.748-12.571-10.947,3.315-20.48,14.766-21.527,25.156a23.063,23.063,0,0,1-.615,3.437c-.737,2.857-2.333,4.916-5.56,4.634-3.417-.3-4.138-2.76-4.138-5.731q0-24.237-.07-48.475c0-2.332.037-3.915-.1-6.981.23-15.867,5.622-24.214,16.176-32.073a13.935,13.935,0,0,0,6.009-10.607c3.319-28.345,15.217-52.5,36.033-72.592m44.084,85.83a85.871,85.871,0,0,0-1.179-17.922c-3.99-23.251-13.269-43.874-30.3-60.636-2.976-2.928-5.454-3-8.473.025A109.089,109.089,0,0,0,481.3,294.737c-6.421,20.944-5.193,42.124-1.411,63.3,1.524,8.533,4.243,16.778,6.872,25.024,1.531,4.8,4.261,5.842,10.879,4.867,4.577-.675,2.949-4.145,3.063-6.631.22-4.822-.085-9.668.111-14.493.312-7.666,5.8-13.745,11.988-13.564,6.571.193,11.322,5.873,11.471,13.888.1,5.5.011,11,.059,16.5.013,1.452-.224,3.013,1.429,3.963,4.024,2.311,11.3-.068,12.922-4.442,6.535-17.622,10.826-35.676,10.15-55.636m-80.343,52.4c8.539-5.57,7.328-2.725,4.876-12.761-.592-2.422-1.111-4.861-1.676-7.289-2.1-9.015-2.977-18.235-4.276-27.874-7.434,5.978-11.125,11.042-12.175,22.142-.02,3.318.089,6.977.089,10.472,0,8.912,0,17.824,0,27.712a80.475,80.475,0,0,1,13.163-12.4m98.6-38.852c-3.152-3.062-7.707-7.728-8.326-8.152s-.764,1.448-.806,2.04a186.032,186.032,0,0,1-6.549,37.764,3.208,3.208,0,0,0,1.334,3.947,73.17,73.17,0,0,1,17.5,14.458c0-15.19-.276-29.668-.365-44.073a6.617,6.617,0,0,0-1.772-4.834M514.966,405.5c.009-12.8.044-25.6,0-38.393-.006-1.735.334-4.28-2.095-4.406-2.839-.148-2.607,2.567-2.616,4.454q-.139,31.164-.129,62.329c0,1.644-.01,3.725,2.183,3.883,2.745.2,2.5-2.2,2.529-3.93C514.941,421.792,514.934,414.146,514.966,405.5Z" transform="translate(132.587 118.818)"/><path d="M531.707,311.4c7.559,11.586,5.852,23.4-4.274,31.366-9.393,7.391-22.913,6.662-30.955-1.669-8.608-8.918-8.968-22.158-.863-31.788,9.055-10.76,25.329-9.944,36.091,2.091m-4.981,17.672c2.084-7.684-1.82-15.186-9.088-17.464a14.226,14.226,0,0,0-17.924,8.562c-2.644,7.406.985,14.976,8.525,17.784C515.073,340.5,522.1,337.353,526.725,329.075Z" transform="translate(132.587 118.818)"/></g></svg>